<?xml version="1.0" encoding="UTF-8"?>
<svg version="1.1" xmlns="http://www.w3.org/2000/svg" width="64" height="64">
<path d="M0 0 C21.12 0 42.24 0 64 0 C64 21.12 64 42.24 64 64 C42.88 64 21.76 64 0 64 C0 42.88 0 21.76 0 0 Z " fill="#0D0F14" transform="translate(0,0)"/>
<path d="M0 0 C21.12 0 42.24 0 64 0 C64 21.12 64 42.24 64 64 C42.88 64 21.76 64 0 64 C0 42.88 0 21.76 0 0 Z M8 6 C4.87246997 10.64482137 4.60216756 14.80914113 4.78515625 20.25 C4.80211044 21.02633789 4.81906464 21.80267578 4.83653259 22.60253906 C4.87686732 24.23654189 4.92523365 25.87036415 4.98120117 27.50390625 C5.06224852 29.99227887 5.10592964 32.4794265 5.14648438 34.96875 C5.19045324 36.56256381 5.23660447 38.15631922 5.28515625 39.75 C5.30111595 40.85649902 5.30111595 40.85649902 5.31739807 41.98535156 C5.57452151 48.11509675 7.73288247 51.73288247 12 56 C17.91663172 57.65295279 24.19471128 57.26085912 30.29223633 57.29516602 C31.72072233 57.30670835 33.14916444 57.32719609 34.57739258 57.35668945 C36.65475385 57.39951424 38.73084511 57.41554974 40.80859375 57.42578125 C42.66182251 57.44765503 42.66182251 57.44765503 44.55249023 57.4699707 C49.4840404 56.79769296 52.5659859 54.57741551 55.875 50.9375 C57.62360539 46.37169703 57.22849567 41.83226022 57 37 C57.66 37 58.32 37 59 37 C60.25311193 32.51907955 60.2978082 28.19049911 60.375 23.5625 C60.41238281 22.71623047 60.44976562 21.86996094 60.48828125 20.99804688 C60.55156043 16.50874092 60.51928731 14.64422223 57.61328125 11.0390625 C56.75089844 10.36617187 55.88851562 9.69328125 55 9 C54.278125 8.278125 53.55625 7.55625 52.8125 6.8125 C45.15300486 1.87638091 34.96822986 2.6635482 26.1875 2.6875 C24.98673828 2.67138672 23.78597656 2.65527344 22.54882812 2.63867188 C21.39189453 2.63802734 20.23496094 2.63738281 19.04296875 2.63671875 C17.48098755 2.63224731 17.48098755 2.63224731 15.88745117 2.62768555 C12.44955998 3.07097498 10.70474154 3.8310037 8 6 Z " fill="#100D08" transform="translate(0,0)"/>
<path d="M0 0 C2.475 0.495 2.475 0.495 5 1 C5.99 3.97 6.98 6.94 8 10 C9.53521956 7.69717067 10.58357909 5.82137765 11.625 3.3125 C12.07875 2.219375 12.5325 1.12625 13 0 C16.77324749 1.88662375 17.58234319 7.26683706 19 11 C20.65 7.37 22.3 3.74 24 0 C28.95 0 33.9 0 39 0 C38.67 0.99 38.34 1.98 38 3 C36.84371094 3.03867187 36.84371094 3.03867187 35.6640625 3.078125 C34.66117188 3.13484375 33.65828125 3.1915625 32.625 3.25 C31.62726562 3.29640625 30.62953125 3.3428125 29.6015625 3.390625 C26.8473523 3.72160885 26.8473523 3.72160885 25.6484375 6.046875 C25.43445313 6.69140625 25.22046875 7.3359375 25 8 C27.64 8 30.28 8 33 8 C31.9375 10 31.9375 10 30 12 C26.3125 12.25 26.3125 12.25 23 12 C22.01 15.3 21.02 18.6 20 22 C19.34 22 18.68 22 18 22 C16.68 18.04 15.36 14.08 14 10 C12.35 13.96 10.7 17.92 9 22 C6.28437448 20.64218724 6.24488866 19.40101939 5.2734375 16.5625 C4.9640625 15.66789062 4.6546875 14.77328125 4.3359375 13.8515625 C4.01882812 12.91054688 3.70171875 11.96953125 3.375 11 C2.88773438 9.58847656 2.88773438 9.58847656 2.390625 8.1484375 C0 1.17745536 0 1.17745536 0 0 Z " fill="#A37224" transform="translate(13,22)"/>
<path d="M0 0 C1.08603516 0.0103125 2.17207031 0.020625 3.29101562 0.03125 C20.54091386 0.36277958 20.54091386 0.36277958 26.375 4.875 C29.57720588 8.32352941 29.57720588 8.32352941 29.8125 11.5 C27.77130212 9.88405168 25.77177063 8.2143618 23.8125 6.5 C23.8125 5.84 23.8125 5.18 23.8125 4.5 C23.19375 4.685625 22.575 4.87125 21.9375 5.0625 C17.4801794 5.68652488 13.25763889 5.06103695 8.8125 4.5 C9.328125 5.386875 9.84375 6.27375 10.375 7.1875 C11.91689539 10.74056329 12.15864485 11.94233146 10.8125 15.5 C9.625 17.3125 9.625 17.3125 7.8125 18.5 C4.69438517 18.88976435 2.70230433 19.00422245 -0.0625 17.4375 C-1.8408399 14.37480351 -1.54638593 11.96923068 -1.1875 8.5 C-0.23945468 6.80324196 0.75382378 5.13002529 1.8125 3.5 C-0.41722273 3.61465421 -2.64628753 3.74214766 -4.875 3.875 C-6.73705078 3.97941406 -6.73705078 3.97941406 -8.63671875 4.0859375 C-11.88067772 4.46422094 -14.25317185 5.11979976 -17.1875 6.5 C-12.86766662 -0.87769296 -8.037969 -0.29995919 0 0 Z " fill="#483E33" transform="translate(27.1875,2.5)"/>
<path d="M0 0 C0.66 0 1.32 0 2 0 C2.98386923 4.05846056 3.3148325 7.82846941 3 12 C2.01 12.66 1.02 13.32 0 14 C-0.495 13.505 -0.495 13.505 -1 13 C-1 14.65 -1 16.3 -1 18 C-7.89504009 22.18787685 -13.88171105 24.50698777 -22 23 C-28.49847367 20.39176907 -33.08237812 15.6526131 -36.3125 9.5 C-37.11504732 6.58164609 -37.14012893 4.01277198 -37 1 C-35.91803886 3.11031159 -34.91000502 5.21452291 -33.9921875 7.40234375 C-31.65468593 12.70667423 -29.50368422 16.36030399 -24.3359375 19.171875 C-20.00321565 20.70789011 -15.56525341 20.90768789 -11 21 C-11.33 19.68 -11.66 18.36 -12 17 C-12.99 17.33 -13.98 17.66 -15 18 C-15.33 16.02 -15.66 14.04 -16 12 C-15.34 11.79375 -14.68 11.5875 -14 11.375 C-9.16725739 9.15999297 -4.56044833 6.11828976 -1.3828125 1.8046875 C-0.92648438 1.20914062 -0.47015625 0.61359375 0 0 Z " fill="#483314" transform="translate(49,29)"/>
<path d="M0 0 C2.91725552 3.3877806 4.28255824 7.07337555 5.6875 11.25 C6.02491211 12.22453125 6.02491211 12.22453125 6.36914062 13.21875 C6.91916227 14.81030199 7.46046788 16.40486156 8 18 C9.65 14.04 11.3 10.08 13 6 C15 7 15 7 15.8515625 8.9609375 C16.10679688 9.75757813 16.36203125 10.55421875 16.625 11.375 C17.01558594 12.56222656 17.01558594 12.56222656 17.4140625 13.7734375 C18 16 18 16 18 19 C18.66 19 19.32 19 20 19 C20.33 18.34 20.66 17.68 21 17 C21.33 17.66 21.66 18.32 22 19 C21.67 19.99 21.34 20.98 21 22 C21.66 22 22.32 22 23 22 C23.33 20.68 23.66 19.36 24 18 C24.33 20.31 24.66 22.62 25 25 C18.28261803 25.55566579 13.21965537 25.54696249 7.6484375 21.4765625 C2.7872186 17.12220055 0.36252755 11.28148295 -1 5 C-0.6875 1.9375 -0.6875 1.9375 0 0 Z " fill="#0B0B0C" transform="translate(13,25)"/>
<path d="M0 0 C2.475 0.495 2.475 0.495 5 1 C5.99 3.97 6.98 6.94 8 10 C9.53521956 7.69717067 10.58357909 5.82137765 11.625 3.3125 C12.07875 2.219375 12.5325 1.12625 13 0 C15.54384726 1.27192363 15.69368156 2.19948469 16.6875 4.8125 C16.95949219 5.49957031 17.23148438 6.18664062 17.51171875 6.89453125 C18.06812731 9.29376496 17.77364938 10.6894364 17 13 C16.01 12.01 15.02 11.02 14 10 C12.35 13.96 10.7 17.92 9 22 C6.28437448 20.64218724 6.24488866 19.40101939 5.2734375 16.5625 C4.9640625 15.66789062 4.6546875 14.77328125 4.3359375 13.8515625 C4.01882812 12.91054688 3.70171875 11.96953125 3.375 11 C2.88773438 9.58847656 2.88773438 9.58847656 2.390625 8.1484375 C0 1.17745536 0 1.17745536 0 0 Z " fill="#936016" transform="translate(13,22)"/>
<path d="M0 0 C0.66 0.66 1.32 1.32 2 2 C1.96712417 4.72869407 1.43602229 7.2966618 1 10 C1.66 10.33 2.32 10.66 3 11 C1.35 14.96 -0.3 18.92 -2 23 C-4.66236872 20.33763128 -5.05939079 17.67117635 -6.0234375 14.09375 C-7.23375721 11.49882454 -8.37452191 10.99400817 -11 10 C-10.34 10 -9.68 10 -9 10 C-8.74476562 9.40703125 -8.48953125 8.8140625 -8.2265625 8.203125 C-6.88183502 5.78775462 -5.50785633 4.48788294 -3.375 2.75 C-2.74335938 2.22921875 -2.11171875 1.7084375 -1.4609375 1.171875 C-0.73777344 0.59179688 -0.73777344 0.59179688 0 0 Z " fill="#292723" transform="translate(24,11)"/>
<path d="M0 0 C1.9375 1.75 1.9375 1.75 3 4 C2.8624874 6.81900839 2.35530428 8.45769347 0.8125 10.8125 C-1.88924432 12.58260835 -3.84673574 12.39415803 -7 12 C-8.875 10.9375 -8.875 10.9375 -10 9 C-10.4375 5.5 -10.4375 5.5 -10 2 C-7.0239502 -1.66283052 -4.29996319 -1.37232868 0 0 Z " fill="#B68530" transform="translate(36,9)"/>
<path d="M0 0 C1.58748047 0.01063477 1.58748047 0.01063477 3.20703125 0.02148438 C4.79451172 -0.00848633 4.79451172 -0.00848633 6.4140625 -0.0390625 C7.93580078 -0.0380957 7.93580078 -0.0380957 9.48828125 -0.03710938 C10.88143555 -0.03988892 10.88143555 -0.03988892 12.30273438 -0.04272461 C14.70703125 0.45898438 14.70703125 0.45898438 17.70703125 4.45898438 C8.13703125 4.12898437 -1.43296875 3.79898437 -11.29296875 3.45898438 C-7.36386876 -0.47011562 -5.32485412 0.0439791 0 0 Z " fill="#271E14" transform="translate(29.29296875,-0.458984375)"/>
<path d="M0 0 C0.66 0.66 1.32 1.32 2 2 C1.1028125 2.556875 1.1028125 2.556875 0.1875 3.125 C-2.92876474 5.79608406 -4.70235147 8.79130586 -5.25961304 12.92645264 C-5.34549622 15.1109868 -5.33770672 17.27519293 -5.29296875 19.4609375 C-5.28872391 20.25150543 -5.28447906 21.04207336 -5.28010559 21.8565979 C-5.26341301 24.3630894 -5.22577983 26.86875461 -5.1875 29.375 C-5.17244092 31.08201958 -5.15875466 32.78905185 -5.14648438 34.49609375 C-5.11354056 38.66437725 -5.06182493 42.83204889 -5 47 C-7.89062691 44.10937309 -7.43068398 41.06152728 -7.5546875 37.17578125 C-7.58354034 36.39615524 -7.61239319 35.61652924 -7.64212036 34.8132782 C-7.69924089 33.15995165 -7.75100324 31.5064327 -7.79785156 29.8527832 C-7.87420613 27.33863997 -7.9831328 24.82729075 -8.09375 22.31445312 C-8.1452443 20.70579241 -8.1947849 19.09706774 -8.2421875 17.48828125 C-8.27843231 16.7432283 -8.31467712 15.99817535 -8.35202026 15.23054504 C-8.45960787 9.69298661 -7.16697631 6.55839423 -4 2 C-1.75 0.5625 -1.75 0.5625 0 0 Z " fill="#251A0D" transform="translate(13,3)"/>
<path d="M0 0 C1.48831242 0.00667405 2.97660807 0.01863442 4.46484375 0.03515625 C5.22345703 0.03966797 5.98207031 0.04417969 6.76367188 0.04882812 C8.64326246 0.06064945 10.52281274 0.07858547 12.40234375 0.09765625 C12.40234375 0.42765625 12.40234375 0.75765625 12.40234375 1.09765625 C7.45234375 1.09765625 2.50234375 1.09765625 -2.59765625 1.09765625 C-3.05140625 2.52078125 -3.50515625 3.94390625 -3.97265625 5.41015625 C-4.93709834 8.43499735 -5.80697052 10.41162765 -7.59765625 13.09765625 C-8.24858215 11.85030058 -8.89317294 10.59963793 -9.53515625 9.34765625 C-9.89480469 8.6515625 -10.25445313 7.95546875 -10.625 7.23828125 C-11.55323807 5.19541192 -12.12932203 3.28650249 -12.59765625 1.09765625 C-11.29828125 1.11828125 -9.99890625 1.13890625 -8.66015625 1.16015625 C-7.30599992 1.18165079 -5.95009542 1.16913824 -4.59765625 1.09765625 C-3.59765625 0.09765625 -3.59765625 0.09765625 0 0 Z " fill="#1C1D1F" transform="translate(39.59765625,20.90234375)"/>
<path d="M0 0 C4.95 0 9.9 0 15 0 C14.67 0.99 14.34 1.98 14 3 C8.555 3.495 8.555 3.495 3 4 C2.34 5.65 1.68 7.3 1 9 C1.99 9.33 2.98 9.66 4 10 C1.03 9.505 1.03 9.505 -2 9 C-1.125 2.25 -1.125 2.25 0 0 Z " fill="#F4D47A" transform="translate(37,22)"/>
<path d="M0 0 C4 4 4 4 4.4699707 6.13476562 C4.45538818 6.88435547 4.44080566 7.63394531 4.42578125 8.40625 C4.41740234 9.23253906 4.40902344 10.05882812 4.40039062 10.91015625 C4.37138672 11.76480469 4.34238281 12.61945312 4.3125 13.5 C4.30283203 14.35464844 4.29316406 15.20929687 4.28320312 16.08984375 C4.21487284 19.89851461 4.03580456 23.31760272 3 27 C2.34 27 1.68 27 1 27 C0.67 18.09 0.34 9.18 0 0 Z " fill="#2E2316" transform="translate(56,10)"/>
<path d="M0 0 C0.66 0 1.32 0 2 0 C2.98386923 4.05846056 3.3148325 7.82846941 3 12 C0 14 0 14 -2.1875 13.625 C-2.785625 13.41875 -3.38375 13.2125 -4 13 C-4 11.35 -4 9.7 -4 8 C-3.01 8 -2.02 8 -1 8 C-1.33 7.34 -1.66 6.68 -2 6 C-2.99 6.495 -2.99 6.495 -4 7 C-2.79618552 4.50638429 -1.54571278 2.31856917 0 0 Z " fill="#6C572E" transform="translate(49,29)"/>
<path d="M0 0 C2.54384726 1.27192363 2.69368156 2.19948469 3.6875 4.8125 C3.95949219 5.49957031 4.23148438 6.18664062 4.51171875 6.89453125 C5.06812731 9.29376496 4.77364938 10.6894364 4 13 C3.01 12.01 2.02 11.02 1 10 C-0.98 10.99 -0.98 10.99 -3 12 C-2.49202991 7.6822542 -1.80317221 3.96697886 0 0 Z " fill="#C5963C" transform="translate(26,22)"/>
<path d="M0 0 C2.9375 0.1875 2.9375 0.1875 6 1 C7.375 3.0625 7.375 3.0625 8 5 C5.64561267 6.42944945 4.51967567 7.08661261 1.75 6.625 C1.1725 6.41875 0.595 6.2125 0 6 C-0.38218767 4.34385343 -0.71395102 2.67542976 -1 1 C-0.67 0.67 -0.34 0.34 0 0 Z " fill="#E9C66E" transform="translate(30,8)"/>
<path d="M0 0 C1.31868099 4.49365905 1.14766066 8.47016058 0 13 C-1.45338273 15.62856019 -3.06818124 17.67191072 -5 20 C-5.66 19.67 -6.32 19.34 -7 19 C-6.360625 18.236875 -5.72125 17.47375 -5.0625 16.6875 C-2.04364485 12.26055693 -2.18514758 7.20264705 -2 2 C-1.34 2 -0.68 2 0 2 C0 1.34 0 0.68 0 0 Z " fill="#22180C" transform="translate(59,35)"/>
<path d="M0 0 C0.33 0.99 0.66 1.98 1 3 C-0.98 3.99 -0.98 3.99 -3 5 C-3 6.98 -3 8.96 -3 11 C-3.99 10.67 -4.98 10.34 -6 10 C-6.6875 7.9375 -6.6875 7.9375 -7 6 C-7.99 6 -8.98 6 -10 6 C-7.27521226 2.63408573 -3.93143208 1.55773724 0 0 Z " fill="#402F17" transform="translate(47,34)"/>
<path d="M0 0 C2.475 0.495 2.475 0.495 5 1 C5.33 3.31 5.66 5.62 6 8 C4.68 7.67 3.36 7.34 2 7 C1.34 4.69 0.68 2.38 0 0 Z " fill="#CAA049" transform="translate(13,22)"/>
<path d="M0 0 C1.70840281 1.63412443 2.93453047 2.86906094 4 5 C4.66 5.33 5.32 5.66 6 6 C3.69 6.33 1.38 6.66 -1 7 C-1.66 5.02 -2.32 3.04 -3 1 C-2.01 0.67 -1.02 0.34 0 0 Z " fill="#AC7B29" transform="translate(19,29)"/>
<path d="M0 0 C1.625 1.6875 1.625 1.6875 3 4 C2.1875 6.75 2.1875 6.75 1 9 C1.99 9.33 2.98 9.66 4 10 C1.03 9.505 1.03 9.505 -2 9 C-1.125 2.25 -1.125 2.25 0 0 Z " fill="#E3BC5E" transform="translate(37,22)"/>
<path d="M0 0 C0.66 0.66 1.32 1.32 2 2 C1.401875 2.37125 0.80375 2.7425 0.1875 3.125 C-2.49654509 5.42561008 -3.5766714 7.79751065 -5 11 C-5.33 11 -5.66 11 -6 11 C-6.25 5.375 -6.25 5.375 -4 2 C-1.875 0.8125 -1.875 0.8125 0 0 Z " fill="#2C2013" transform="translate(13,3)"/>
<path d="M0 0 C0.33 0.66 0.66 1.32 1 2 C1.99 1.67 2.98 1.34 4 1 C5.39439664 0.93334624 6.79169875 0.91461801 8.1875 0.9375 C10.0746875 0.9684375 10.0746875 0.9684375 12 1 C11.01 2.485 11.01 2.485 10 4 C7.6171875 4.29296875 7.6171875 4.29296875 4.875 4.1875 C3.96492188 4.16042969 3.05484375 4.13335937 2.1171875 4.10546875 C1.41851562 4.07066406 0.71984375 4.03585938 0 4 C0 2.68 0 1.36 0 0 Z " fill="#BA9140" transform="translate(34,29)"/>
<path d="M0 0 C0.70125 0.804375 1.4025 1.60875 2.125 2.4375 C5.26291593 5.23433811 6.88758763 5.71308751 11 6 C10.67 6.66 10.34 7.32 10 8 C3.25 7.125 3.25 7.125 1 6 C0.375 2.9375 0.375 2.9375 0 0 Z " fill="#080708" transform="translate(24,15)"/>
<path d="M0 0 C-0.66 2.31 -1.32 4.62 -2 7 C-2.66 7 -3.32 7 -4 7 C-4.66 4.69 -5.32 2.38 -6 0 C-2.25 -1.125 -2.25 -1.125 0 0 Z " fill="#905D14" transform="translate(35,37)"/>
<path d="M0 0 C0.99 0 1.98 0 3 0 C3.1875 3.375 3.1875 3.375 3 7 C2.01 7.66 1.02 8.32 0 9 C0 6.03 0 3.06 0 0 Z " fill="#72511E" transform="translate(49,34)"/>
<path d="M0 0 C0.66 0.33 1.32 0.66 2 1 C2.40729228 3.32156597 2.74438677 5.6568787 3 8 C1.68 7.67 0.36 7.34 -1 7 C-0.67 4.69 -0.34 2.38 0 0 Z " fill="#E3C36F" transform="translate(26,22)"/>
<path d="M0 0 C1.5625 1.75 1.5625 1.75 3 4 C2.8125 6.1875 2.8125 6.1875 2 8 C1.01 8.495 1.01 8.495 0 9 C-0.87890625 2.84765625 -0.87890625 2.84765625 -1 1 C-0.67 0.67 -0.34 0.34 0 0 Z " fill="#191108" transform="translate(13,25)"/>
<path d="M0 0 C2.64 0 5.28 0 8 0 C7.67 0.99 7.34 1.98 7 3 C4.69 3 2.38 3 0 3 C0 2.01 0 1.02 0 0 Z " fill="#060607" transform="translate(36,34)"/>
<path d="M0 0 C0.99 0.99 1.98 1.98 3 3 C2.67 3.33 2.34 3.66 2 4 C2.99 4.66 3.98 5.32 5 6 C2.03 5.505 2.03 5.505 -1 5 C-1.33 3.68 -1.66 2.36 -2 1 C-1.34 0.67 -0.68 0.34 0 0 Z " fill="#A76F1D" transform="translate(29,13)"/>
<path d="M0 0 C0.66 0 1.32 0 2 0 C2.33 1.65 2.66 3.3 3 5 C2.01 5.66 1.02 6.32 0 7 C-0.99 6.67 -1.98 6.34 -3 6 C-2.34 5.67 -1.68 5.34 -1 5 C-0.34444881 2.47266765 -0.34444881 2.47266765 0 0 Z " fill="#38250F" transform="translate(45,42)"/>
<path d="M0 0 C0.66 0.66 1.32 1.32 2 2 C1.01 2.33 0.02 2.66 -1 3 C-1 3.66 -1 4.32 -1 5 C-2.32 5.33 -3.64 5.66 -5 6 C-5.33 5.34 -5.66 4.68 -6 4 C-3.94766315 1.7522025 -2.99332739 0.9977758 0 0 Z " fill="#D3A244" transform="translate(36,12)"/>
<path d="M0 0 C2.875 0.25 2.875 0.25 6 1 C7.375 3.0625 7.375 3.0625 8 5 C1.125 2.25 1.125 2.25 0 0 Z " fill="#D1B876" transform="translate(30,8)"/>
<path d="M0 0 C0 0.66 0 1.32 0 2 C0.66 2 1.32 2 2 2 C2.66 3.65 3.32 5.3 4 7 C1 5 -2 3 -5 1 C-2 0 -2 0 0 0 Z " fill="#322516" transform="translate(52,3)"/>
<path d="M0 0 C0.66 0.33 1.32 0.66 2 1 C1.67 2.32 1.34 3.64 1 5 C0.34 5 -0.32 5 -1 5 C-1.33 5.66 -1.66 6.32 -2 7 C-2.125 4.625 -2.125 4.625 -2 2 C-1.34 1.34 -0.68 0.68 0 0 Z " fill="#CA9C41" transform="translate(28,9)"/>
</svg>
